M48
; DRILL file {KiCad 7.0.1-0} date 2023 April 11, Tuesday 15:49:31
; FORMAT={-:-/ absolute / inch / decimal}
; #@! TF.CreationDate,2023-04-11T15:49:31+08:00
; #@! TF.GenerationSoftware,Kicad,Pcbnew,7.0.1-0
; #@! TF.FileFunction,Plated,1,2,PTH
FMAT,2
INCH
; #@! TA.AperFunction,Plated,PTH,ViaDrill
T1C0.0157
; #@! TA.AperFunction,Plated,PTH,ComponentDrill
T2C0.0394
%
G90
G05
T1
X4.945Y-3.7133
X4.981Y-3.834
X5.0501Y-3.6804
X5.052Y-3.6371
X5.058Y-3.8575
X5.075Y-3.54
X5.0914Y-3.6371
X5.13Y-3.6804
X5.2Y-3.54
X5.215Y-3.6628
X5.323Y-3.383
X5.324Y-3.486
X5.384Y-3.486
T2
X4.8Y-3.5
X4.8Y-3.6
X4.8Y-3.7
X4.8Y-3.8
X4.8Y-3.9
X5.355Y-3.695
X5.355Y-3.795
X5.355Y-3.895
T0
M30
