%TF.GenerationSoftware,KiCad,Pcbnew,7.0.1-0*%
%TF.CreationDate,2023-04-09T14:10:59+08:00*%
%TF.ProjectId,firstproject,66697273-7470-4726-9f6a-6563742e6b69,rev?*%
%TF.SameCoordinates,Original*%
%TF.FileFunction,Paste,Top*%
%TF.FilePolarity,Positive*%
%FSLAX46Y46*%
G04 Gerber Fmt 4.6, Leading zero omitted, Abs format (unit mm)*
G04 Created by KiCad (PCBNEW 7.0.1-0) date 2023-04-09 14:10:59*
%MOMM*%
%LPD*%
G01*
G04 APERTURE LIST*
G04 Aperture macros list*
%AMRoundRect*
0 Rectangle with rounded corners*
0 $1 Rounding radius*
0 $2 $3 $4 $5 $6 $7 $8 $9 X,Y pos of 4 corners*
0 Add a 4 corners polygon primitive as box body*
4,1,4,$2,$3,$4,$5,$6,$7,$8,$9,$2,$3,0*
0 Add four circle primitives for the rounded corners*
1,1,$1+$1,$2,$3*
1,1,$1+$1,$4,$5*
1,1,$1+$1,$6,$7*
1,1,$1+$1,$8,$9*
0 Add four rect primitives between the rounded corners*
20,1,$1+$1,$2,$3,$4,$5,0*
20,1,$1+$1,$4,$5,$6,$7,0*
20,1,$1+$1,$6,$7,$8,$9,0*
20,1,$1+$1,$8,$9,$2,$3,0*%
%AMFreePoly0*
4,1,454,-0.508878,1.163999,-0.508758,1.163946,-0.508635,1.163987,-0.467635,1.160987,-0.467454,1.160896,-0.467258,1.160945,-0.427259,1.154945,-0.427202,1.154910,-0.427138,1.154925,-0.387138,1.147925,-0.386976,1.147822,-0.386787,1.147851,-0.346787,1.137851,-0.346721,1.137802,-0.346643,1.137812,-0.307642,1.126812,-0.307496,1.126697,-0.307311,1.126706,-0.268310,1.112706,-0.268229,1.112633,
-0.268121,1.112634,-0.231121,1.097634,-0.230991,1.097506,-0.230813,1.097496,-0.193813,1.079496,-0.193716,1.079387,-0.193572,1.079371,-0.157571,1.059371,-0.157514,1.059299,-0.157428,1.059287,-0.122427,1.038287,-0.122318,1.038141,-0.122141,1.038102,-0.089141,1.015102,-0.089083,1.015011,-0.088981,1.014985,-0.055981,0.989986,-0.055913,0.989870,-0.055787,0.989831,-0.024787,0.963831,
-0.024721,0.963704,-0.024588,0.963655,0.005412,0.935655,0.005488,0.935488,0.005655,0.935412,0.033656,0.905411,0.033705,0.905278,0.033831,0.905213,0.059831,0.874213,0.059871,0.874085,0.059985,0.874019,0.084985,0.841020,0.085012,0.840916,0.085102,0.840859,0.108102,0.807859,0.108141,0.807680,0.108287,0.807572,0.129288,0.772572,0.129301,0.772483,0.129371,0.772428,
0.149371,0.736428,0.149387,0.736283,0.149496,0.736187,0.167496,0.699187,0.167506,0.699008,0.167634,0.698879,0.182634,0.661878,0.182633,0.661769,0.182706,0.661689,0.196706,0.622689,0.196697,0.622502,0.196812,0.622357,0.207812,0.583357,0.207802,0.583278,0.207851,0.583213,0.217851,0.543213,0.217822,0.543023,0.217925,0.542862,0.224925,0.502862,0.224910,0.502798,
0.224945,0.502742,0.230945,0.462742,0.230896,0.462545,0.230987,0.462365,0.233987,0.421364,0.233946,0.421240,0.233999,0.421122,0.234999,0.380122,0.234975,0.380060,0.235000,0.380000,0.234975,0.379939,0.234999,0.379878,0.233999,0.338878,0.233946,0.338759,0.233987,0.338636,0.230987,0.297635,0.230896,0.297454,0.230945,0.297258,0.224945,0.257258,0.224910,0.257201,
0.224925,0.257138,0.217925,0.217138,0.217822,0.216976,0.217851,0.216787,0.207851,0.176787,0.207802,0.176721,0.207812,0.176643,0.196812,0.137643,0.196697,0.137497,0.196706,0.137311,0.182706,0.098311,0.182633,0.098230,0.182634,0.098122,0.167634,0.061121,0.167506,0.060991,0.167496,0.060813,0.149496,0.023813,0.149387,0.023716,0.149371,0.023572,0.129371,-0.012428,
0.129301,-0.012483,0.129288,-0.012572,0.108287,-0.047572,0.108141,-0.047680,0.108102,-0.047859,0.085102,-0.080859,0.085012,-0.080916,0.084985,-0.081020,0.059985,-0.114019,0.059871,-0.114085,0.059831,-0.114213,0.033831,-0.145213,0.033705,-0.145278,0.033656,-0.145411,0.005655,-0.175412,0.005488,-0.175488,0.005412,-0.175655,-0.024588,-0.203655,-0.024721,-0.203704,-0.024787,-0.203831,
-0.055787,-0.229831,-0.055913,-0.229870,-0.055981,-0.229986,-0.088981,-0.254985,-0.089083,-0.255011,-0.089141,-0.255102,-0.122141,-0.278102,-0.122318,-0.278141,-0.122427,-0.278287,-0.157428,-0.299287,-0.157514,-0.299299,-0.157571,-0.299371,-0.193572,-0.319371,-0.193716,-0.319387,-0.193813,-0.319496,-0.230813,-0.337496,-0.230991,-0.337506,-0.231121,-0.337634,-0.268121,-0.352634,-0.268229,-0.352633,
-0.268310,-0.352706,-0.307311,-0.366706,-0.307496,-0.366697,-0.307642,-0.366812,-0.346643,-0.377812,-0.346721,-0.377802,-0.346787,-0.377851,-0.386787,-0.387851,-0.386976,-0.387822,-0.387138,-0.387925,-0.427138,-0.394925,-0.427202,-0.394910,-0.427259,-0.394945,-0.467258,-0.400945,-0.467454,-0.400896,-0.467635,-0.400987,-0.508635,-0.403987,-0.508758,-0.403946,-0.508878,-0.403999,-0.549878,-0.404999,
-0.550000,-0.404951,-0.550122,-0.404999,-0.591122,-0.403999,-0.591240,-0.403946,-0.591364,-0.403987,-0.632365,-0.400987,-0.632545,-0.400896,-0.632742,-0.400945,-0.672742,-0.394945,-0.672798,-0.394910,-0.672862,-0.394925,-0.712862,-0.387925,-0.713023,-0.387822,-0.713213,-0.387851,-0.753213,-0.377851,-0.753278,-0.377802,-0.753357,-0.377812,-0.792357,-0.366812,-0.792502,-0.366697,-0.792689,-0.366706,
-0.831689,-0.352706,-0.831769,-0.352633,-0.831878,-0.352634,-0.868879,-0.337634,-0.869008,-0.337506,-0.869187,-0.337496,-0.906187,-0.319496,-0.906283,-0.319387,-0.906428,-0.319371,-0.942428,-0.299371,-0.942483,-0.299301,-0.942572,-0.299288,-0.977572,-0.278287,-0.977680,-0.278141,-0.977859,-0.278102,-1.010859,-0.255102,-1.010916,-0.255012,-1.011020,-0.254985,-1.044019,-0.229985,-1.044085,-0.229871,
-1.044213,-0.229831,-1.075213,-0.203831,-1.075278,-0.203705,-1.075411,-0.203656,-1.105412,-0.175655,-1.105488,-0.175488,-1.105655,-0.175412,-1.133655,-0.145412,-1.133704,-0.145278,-1.133831,-0.145213,-1.159831,-0.114213,-1.159870,-0.114086,-1.159986,-0.114019,-1.184985,-0.081019,-1.185011,-0.080916,-1.185102,-0.080859,-1.208102,-0.047859,-1.208141,-0.047681,-1.208287,-0.047573,-1.229287,-0.012572,
-1.229299,-0.012485,-1.229371,-0.012429,-1.249371,0.023572,-1.249387,0.023716,-1.249496,0.023813,-1.267496,0.060813,-1.267506,0.060991,-1.267634,0.061121,-1.282634,0.098121,-1.282633,0.098229,-1.282706,0.098310,-1.296706,0.137311,-1.296697,0.137496,-1.296812,0.137642,-1.307812,0.176643,-1.307802,0.176721,-1.307851,0.176787,-1.317851,0.216787,-1.317822,0.216976,-1.317925,0.217138,
-1.324925,0.257138,-1.324910,0.257202,-1.324945,0.257259,-1.330945,0.297258,-1.330896,0.297454,-1.330987,0.297635,-1.333987,0.338635,-1.333946,0.338758,-1.333999,0.338878,-1.334999,0.379878,-1.334952,0.380000,-1.334971,0.380049,-1.024994,0.380049,-1.022021,0.330501,-1.015091,0.281000,-1.002239,0.233549,-0.984427,0.187041,-0.961679,0.142533,-0.933957,0.100949,-0.903268,0.062340,
-0.867664,0.026735,-0.829055,-0.003953,-0.787466,-0.031679,-0.742962,-0.054426,-0.696450,-0.072239,-0.648999,-0.085091,-0.599497,-0.092021,-0.549999,-0.094991,-0.500501,-0.092021,-0.451000,-0.085091,-0.403549,-0.072239,-0.357041,-0.054427,-0.312533,-0.031679,-0.270949,-0.003957,-0.232340,0.026731,-0.196735,0.062335,-0.166046,0.100944,-0.138320,0.142533,-0.115573,0.187037,-0.097760,0.233549,
-0.084908,0.281000,-0.077978,0.330502,-0.075005,0.380049,-0.075992,0.404702,-0.077976,0.429512,-0.080951,0.454302,-0.084901,0.478990,-0.090829,0.502702,-0.097745,0.526413,-0.106681,0.550244,-0.115587,0.573003,-0.126459,0.595734,-0.138319,0.617479,-0.151161,0.638224,-0.166039,0.659052,-0.180916,0.678888,-0.196691,0.697620,-0.232391,0.733319,-0.251120,0.749090,-0.270947,0.763960,
-0.291775,0.778838,-0.312507,0.791671,-0.334265,0.803540,-0.356996,0.814412,-0.379756,0.823318,-0.403586,0.832254,-0.427303,0.839171,-0.451009,0.845098,-0.475697,0.849048,-0.500489,0.852023,-0.525298,0.854007,-0.550000,0.854996,-0.574702,0.854007,-0.599512,0.852023,-0.624302,0.849048,-0.648990,0.845098,-0.672702,0.839170,-0.696413,0.832254,-0.720244,0.823318,-0.743003,0.814412,
-0.765734,0.803540,-0.787479,0.791680,-0.808224,0.778838,-0.829051,0.763961,-0.848888,0.749083,-0.867620,0.733308,-0.903319,0.697608,-0.919090,0.678879,-0.933961,0.659051,-0.948838,0.638224,-0.961671,0.617492,-0.973540,0.595734,-0.984412,0.573003,-0.993318,0.550244,-1.002254,0.526413,-1.009171,0.502696,-1.015098,0.478990,-1.019048,0.454303,-1.022023,0.429509,-1.024007,0.404702,
-1.024994,0.380049,-1.334971,0.380049,-1.334999,0.380122,-1.333999,0.421122,-1.333946,0.421241,-1.333987,0.421365,-1.330987,0.462365,-1.330896,0.462545,-1.330945,0.462742,-1.324945,0.502741,-1.324910,0.502797,-1.324925,0.502862,-1.317925,0.542862,-1.317822,0.543023,-1.317851,0.543213,-1.307851,0.583213,-1.307802,0.583278,-1.307812,0.583357,-1.296812,0.622358,-1.296697,0.622503,
-1.296706,0.622689,-1.282706,0.661690,-1.282633,0.661770,-1.282634,0.661879,-1.267634,0.698879,-1.267506,0.699008,-1.267496,0.699187,-1.249496,0.736187,-1.249387,0.736283,-1.249371,0.736428,-1.229371,0.772429,-1.229299,0.772485,-1.229287,0.772572,-1.208287,0.807573,-1.208141,0.807681,-1.208102,0.807859,-1.185102,0.840859,-1.185011,0.840916,-1.184985,0.841019,-1.159986,0.874019,
-1.159870,0.874086,-1.159831,0.874213,-1.133831,0.905213,-1.133704,0.905278,-1.133655,0.905412,-1.105655,0.935412,-1.105488,0.935488,-1.105412,0.935655,-1.075411,0.963656,-1.075278,0.963705,-1.075213,0.963831,-1.044213,0.989831,-1.044085,0.989871,-1.044019,0.989985,-1.011020,1.014985,-1.010916,1.015012,-1.010859,1.015102,-0.977859,1.038102,-0.977680,1.038141,-0.977572,1.038287,
-0.942572,1.059288,-0.942483,1.059301,-0.942428,1.059371,-0.906428,1.079371,-0.906283,1.079387,-0.906187,1.079496,-0.869187,1.097496,-0.869008,1.097506,-0.868879,1.097634,-0.831878,1.112634,-0.831769,1.112633,-0.831689,1.112706,-0.792689,1.126706,-0.792502,1.126697,-0.792357,1.126812,-0.753357,1.137812,-0.753278,1.137802,-0.753213,1.137851,-0.713213,1.147851,-0.713023,1.147822,
-0.712862,1.147925,-0.672862,1.154925,-0.672798,1.154910,-0.672742,1.154945,-0.632742,1.160945,-0.632545,1.160896,-0.632365,1.160987,-0.591364,1.163987,-0.591240,1.163946,-0.591122,1.163999,-0.550122,1.164999,-0.549999,1.164951,-0.549878,1.164999,-0.508878,1.163999,-0.508878,1.163999,$1*%
G04 Aperture macros list end*
%ADD10C,0.010000*%
%ADD11RoundRect,0.218750X-0.218750X-0.256250X0.218750X-0.256250X0.218750X0.256250X-0.218750X0.256250X0*%
%ADD12RoundRect,0.140000X0.170000X-0.140000X0.170000X0.140000X-0.170000X0.140000X-0.170000X-0.140000X0*%
%ADD13RoundRect,0.135000X0.135000X0.185000X-0.135000X0.185000X-0.135000X-0.185000X0.135000X-0.185000X0*%
%ADD14RoundRect,0.218750X0.218750X0.256250X-0.218750X0.256250X-0.218750X-0.256250X0.218750X-0.256250X0*%
%ADD15RoundRect,0.140000X-0.170000X0.140000X-0.170000X-0.140000X0.170000X-0.140000X0.170000X0.140000X0*%
%ADD16RoundRect,0.135000X-0.135000X-0.185000X0.135000X-0.185000X0.135000X0.185000X-0.135000X0.185000X0*%
%ADD17R,1.168400X0.457200*%
%ADD18FreePoly0,0.000000*%
G04 APERTURE END LIST*
%TO.C,S1*%
D10*
X133431000Y-98612600D02*
X132981000Y-98612600D01*
X132981000Y-98162600D01*
X133431000Y-98162600D01*
X133431000Y-98612600D01*
G36*
X133431000Y-98612600D02*
G01*
X132981000Y-98612600D01*
X132981000Y-98162600D01*
X133431000Y-98162600D01*
X133431000Y-98612600D01*
G37*
X133431000Y-97862600D02*
X132981000Y-97862600D01*
X132981000Y-97412600D01*
X133431000Y-97412600D01*
X133431000Y-97862600D01*
G36*
X133431000Y-97862600D02*
G01*
X132981000Y-97862600D01*
X132981000Y-97412600D01*
X133431000Y-97412600D01*
X133431000Y-97862600D01*
G37*
X130781000Y-98612600D02*
X130331000Y-98612600D01*
X130331000Y-98162600D01*
X130781000Y-98162600D01*
X130781000Y-98612600D01*
G36*
X130781000Y-98612600D02*
G01*
X130331000Y-98612600D01*
X130331000Y-98162600D01*
X130781000Y-98162600D01*
X130781000Y-98612600D01*
G37*
X130781000Y-97862600D02*
X130331000Y-97862600D01*
X130331000Y-97412600D01*
X130781000Y-97412600D01*
X130781000Y-97862600D01*
G36*
X130781000Y-97862600D02*
G01*
X130331000Y-97862600D01*
X130331000Y-97412600D01*
X130781000Y-97412600D01*
X130781000Y-97862600D01*
G37*
%TO.C,MK1*%
X129237000Y-93953000D02*
X129208000Y-93956000D01*
X129184000Y-93959000D01*
X129160000Y-93964000D01*
X129136000Y-93969000D01*
X129113000Y-93976000D01*
X129090000Y-93984000D01*
X129067000Y-93994000D01*
X129045000Y-94004000D01*
X129023000Y-94015000D01*
X129002000Y-94028000D01*
X128981000Y-94041000D01*
X128961000Y-94055000D01*
X128942000Y-94070000D01*
X128924000Y-94087000D01*
X128906000Y-94104000D01*
X128890000Y-94122000D01*
X128874000Y-94140000D01*
X128859000Y-94160000D01*
X128845000Y-94180000D01*
X128832000Y-94200000D01*
X128820000Y-94222000D01*
X128809000Y-94244000D01*
X128799000Y-94266000D01*
X128790000Y-94289000D01*
X128783000Y-94312000D01*
X128776000Y-94336000D01*
X128771000Y-94360000D01*
X128767000Y-94384000D01*
X128764000Y-94408000D01*
X128762000Y-94428000D01*
X128762000Y-94433000D01*
X128507000Y-94433000D01*
X128511000Y-94396000D01*
X128517000Y-94359000D01*
X128525000Y-94322000D01*
X128534000Y-94286000D01*
X128545000Y-94250000D01*
X128557000Y-94215000D01*
X128571000Y-94181000D01*
X128587000Y-94147000D01*
X128605000Y-94114000D01*
X128624000Y-94081000D01*
X128644000Y-94050000D01*
X128666000Y-94020000D01*
X128689000Y-93990000D01*
X128713000Y-93962000D01*
X128739000Y-93935000D01*
X128766000Y-93909000D01*
X128794000Y-93885000D01*
X128824000Y-93862000D01*
X128854000Y-93840000D01*
X128885000Y-93820000D01*
X128918000Y-93801000D01*
X128951000Y-93783000D01*
X128985000Y-93767000D01*
X129019000Y-93753000D01*
X129054000Y-93741000D01*
X129090000Y-93730000D01*
X129126000Y-93721000D01*
X129163000Y-93713000D01*
X129200000Y-93707000D01*
X129237000Y-93703000D01*
X129237000Y-93953000D01*
G36*
X129237000Y-93953000D02*
G01*
X129208000Y-93956000D01*
X129184000Y-93959000D01*
X129160000Y-93964000D01*
X129136000Y-93969000D01*
X129113000Y-93976000D01*
X129090000Y-93984000D01*
X129067000Y-93994000D01*
X129045000Y-94004000D01*
X129023000Y-94015000D01*
X129002000Y-94028000D01*
X128981000Y-94041000D01*
X128961000Y-94055000D01*
X128942000Y-94070000D01*
X128924000Y-94087000D01*
X128906000Y-94104000D01*
X128890000Y-94122000D01*
X128874000Y-94140000D01*
X128859000Y-94160000D01*
X128845000Y-94180000D01*
X128832000Y-94200000D01*
X128820000Y-94222000D01*
X128809000Y-94244000D01*
X128799000Y-94266000D01*
X128790000Y-94289000D01*
X128783000Y-94312000D01*
X128776000Y-94336000D01*
X128771000Y-94360000D01*
X128767000Y-94384000D01*
X128764000Y-94408000D01*
X128762000Y-94428000D01*
X128762000Y-94433000D01*
X128507000Y-94433000D01*
X128511000Y-94396000D01*
X128517000Y-94359000D01*
X128525000Y-94322000D01*
X128534000Y-94286000D01*
X128545000Y-94250000D01*
X128557000Y-94215000D01*
X128571000Y-94181000D01*
X128587000Y-94147000D01*
X128605000Y-94114000D01*
X128624000Y-94081000D01*
X128644000Y-94050000D01*
X128666000Y-94020000D01*
X128689000Y-93990000D01*
X128713000Y-93962000D01*
X128739000Y-93935000D01*
X128766000Y-93909000D01*
X128794000Y-93885000D01*
X128824000Y-93862000D01*
X128854000Y-93840000D01*
X128885000Y-93820000D01*
X128918000Y-93801000D01*
X128951000Y-93783000D01*
X128985000Y-93767000D01*
X129019000Y-93753000D01*
X129054000Y-93741000D01*
X129090000Y-93730000D01*
X129126000Y-93721000D01*
X129163000Y-93713000D01*
X129200000Y-93707000D01*
X129237000Y-93703000D01*
X129237000Y-93953000D01*
G37*
X128759000Y-94553000D02*
X128762000Y-94578000D01*
X128766000Y-94602000D01*
X128772000Y-94626000D01*
X128778000Y-94650000D01*
X128786000Y-94674000D01*
X128795000Y-94697000D01*
X128805000Y-94719000D01*
X128816000Y-94742000D01*
X128828000Y-94763000D01*
X128842000Y-94784000D01*
X128856000Y-94804000D01*
X128871000Y-94824000D01*
X128887000Y-94843000D01*
X128905000Y-94860000D01*
X128922000Y-94878000D01*
X128941000Y-94894000D01*
X128961000Y-94909000D01*
X128981000Y-94923000D01*
X129002000Y-94937000D01*
X129023000Y-94949000D01*
X129046000Y-94960000D01*
X129068000Y-94970000D01*
X129091000Y-94979000D01*
X129115000Y-94987000D01*
X129139000Y-94993000D01*
X129163000Y-94999000D01*
X129187000Y-95003000D01*
X129212000Y-95006000D01*
X129232000Y-95008000D01*
X129237000Y-95008000D01*
X129237000Y-95263000D01*
X129200000Y-95259000D01*
X129163000Y-95253000D01*
X129126000Y-95245000D01*
X129090000Y-95236000D01*
X129054000Y-95225000D01*
X129019000Y-95213000D01*
X128985000Y-95199000D01*
X128951000Y-95183000D01*
X128918000Y-95165000D01*
X128885000Y-95146000D01*
X128854000Y-95126000D01*
X128824000Y-95104000D01*
X128794000Y-95081000D01*
X128766000Y-95057000D01*
X128739000Y-95031000D01*
X128713000Y-95004000D01*
X128689000Y-94976000D01*
X128666000Y-94946000D01*
X128644000Y-94916000D01*
X128624000Y-94885000D01*
X128605000Y-94852000D01*
X128587000Y-94819000D01*
X128571000Y-94785000D01*
X128557000Y-94751000D01*
X128545000Y-94716000D01*
X128534000Y-94680000D01*
X128525000Y-94644000D01*
X128517000Y-94607000D01*
X128511000Y-94570000D01*
X128507000Y-94533000D01*
X128757000Y-94533000D01*
X128759000Y-94553000D01*
G36*
X128759000Y-94553000D02*
G01*
X128762000Y-94578000D01*
X128766000Y-94602000D01*
X128772000Y-94626000D01*
X128778000Y-94650000D01*
X128786000Y-94674000D01*
X128795000Y-94697000D01*
X128805000Y-94719000D01*
X128816000Y-94742000D01*
X128828000Y-94763000D01*
X128842000Y-94784000D01*
X128856000Y-94804000D01*
X128871000Y-94824000D01*
X128887000Y-94843000D01*
X128905000Y-94860000D01*
X128922000Y-94878000D01*
X128941000Y-94894000D01*
X128961000Y-94909000D01*
X128981000Y-94923000D01*
X129002000Y-94937000D01*
X129023000Y-94949000D01*
X129046000Y-94960000D01*
X129068000Y-94970000D01*
X129091000Y-94979000D01*
X129115000Y-94987000D01*
X129139000Y-94993000D01*
X129163000Y-94999000D01*
X129187000Y-95003000D01*
X129212000Y-95006000D01*
X129232000Y-95008000D01*
X129237000Y-95008000D01*
X129237000Y-95263000D01*
X129200000Y-95259000D01*
X129163000Y-95253000D01*
X129126000Y-95245000D01*
X129090000Y-95236000D01*
X129054000Y-95225000D01*
X129019000Y-95213000D01*
X128985000Y-95199000D01*
X128951000Y-95183000D01*
X128918000Y-95165000D01*
X128885000Y-95146000D01*
X128854000Y-95126000D01*
X128824000Y-95104000D01*
X128794000Y-95081000D01*
X128766000Y-95057000D01*
X128739000Y-95031000D01*
X128713000Y-95004000D01*
X128689000Y-94976000D01*
X128666000Y-94946000D01*
X128644000Y-94916000D01*
X128624000Y-94885000D01*
X128605000Y-94852000D01*
X128587000Y-94819000D01*
X128571000Y-94785000D01*
X128557000Y-94751000D01*
X128545000Y-94716000D01*
X128534000Y-94680000D01*
X128525000Y-94644000D01*
X128517000Y-94607000D01*
X128511000Y-94570000D01*
X128507000Y-94533000D01*
X128757000Y-94533000D01*
X128759000Y-94553000D01*
G37*
X129374000Y-93707000D02*
X129411000Y-93713000D01*
X129448000Y-93721000D01*
X129484000Y-93730000D01*
X129520000Y-93741000D01*
X129555000Y-93753000D01*
X129589000Y-93767000D01*
X129623000Y-93783000D01*
X129656000Y-93801000D01*
X129689000Y-93820000D01*
X129720000Y-93840000D01*
X129750000Y-93862000D01*
X129780000Y-93885000D01*
X129808000Y-93909000D01*
X129835000Y-93935000D01*
X129861000Y-93962000D01*
X129885000Y-93990000D01*
X129908000Y-94020000D01*
X129930000Y-94050000D01*
X129950000Y-94081000D01*
X129969000Y-94114000D01*
X129987000Y-94147000D01*
X130003000Y-94181000D01*
X130017000Y-94215000D01*
X130029000Y-94250000D01*
X130040000Y-94286000D01*
X130049000Y-94322000D01*
X130057000Y-94359000D01*
X130063000Y-94396000D01*
X130067000Y-94433000D01*
X129817000Y-94433000D01*
X129815000Y-94413000D01*
X129812000Y-94388000D01*
X129808000Y-94364000D01*
X129802000Y-94340000D01*
X129796000Y-94316000D01*
X129788000Y-94292000D01*
X129779000Y-94269000D01*
X129769000Y-94247000D01*
X129758000Y-94224000D01*
X129746000Y-94203000D01*
X129732000Y-94182000D01*
X129718000Y-94162000D01*
X129703000Y-94142000D01*
X129687000Y-94123000D01*
X129669000Y-94106000D01*
X129652000Y-94088000D01*
X129633000Y-94072000D01*
X129613000Y-94057000D01*
X129593000Y-94043000D01*
X129572000Y-94029000D01*
X129551000Y-94017000D01*
X129528000Y-94006000D01*
X129506000Y-93996000D01*
X129483000Y-93987000D01*
X129459000Y-93979000D01*
X129435000Y-93973000D01*
X129411000Y-93967000D01*
X129387000Y-93963000D01*
X129362000Y-93960000D01*
X129342000Y-93958000D01*
X129337000Y-93958000D01*
X129337000Y-93703000D01*
X129374000Y-93707000D01*
G36*
X129374000Y-93707000D02*
G01*
X129411000Y-93713000D01*
X129448000Y-93721000D01*
X129484000Y-93730000D01*
X129520000Y-93741000D01*
X129555000Y-93753000D01*
X129589000Y-93767000D01*
X129623000Y-93783000D01*
X129656000Y-93801000D01*
X129689000Y-93820000D01*
X129720000Y-93840000D01*
X129750000Y-93862000D01*
X129780000Y-93885000D01*
X129808000Y-93909000D01*
X129835000Y-93935000D01*
X129861000Y-93962000D01*
X129885000Y-93990000D01*
X129908000Y-94020000D01*
X129930000Y-94050000D01*
X129950000Y-94081000D01*
X129969000Y-94114000D01*
X129987000Y-94147000D01*
X130003000Y-94181000D01*
X130017000Y-94215000D01*
X130029000Y-94250000D01*
X130040000Y-94286000D01*
X130049000Y-94322000D01*
X130057000Y-94359000D01*
X130063000Y-94396000D01*
X130067000Y-94433000D01*
X129817000Y-94433000D01*
X129815000Y-94413000D01*
X129812000Y-94388000D01*
X129808000Y-94364000D01*
X129802000Y-94340000D01*
X129796000Y-94316000D01*
X129788000Y-94292000D01*
X129779000Y-94269000D01*
X129769000Y-94247000D01*
X129758000Y-94224000D01*
X129746000Y-94203000D01*
X129732000Y-94182000D01*
X129718000Y-94162000D01*
X129703000Y-94142000D01*
X129687000Y-94123000D01*
X129669000Y-94106000D01*
X129652000Y-94088000D01*
X129633000Y-94072000D01*
X129613000Y-94057000D01*
X129593000Y-94043000D01*
X129572000Y-94029000D01*
X129551000Y-94017000D01*
X129528000Y-94006000D01*
X129506000Y-93996000D01*
X129483000Y-93987000D01*
X129459000Y-93979000D01*
X129435000Y-93973000D01*
X129411000Y-93967000D01*
X129387000Y-93963000D01*
X129362000Y-93960000D01*
X129342000Y-93958000D01*
X129337000Y-93958000D01*
X129337000Y-93703000D01*
X129374000Y-93707000D01*
G37*
X130063000Y-94570000D02*
X130057000Y-94607000D01*
X130049000Y-94644000D01*
X130040000Y-94680000D01*
X130029000Y-94716000D01*
X130017000Y-94751000D01*
X130003000Y-94785000D01*
X129987000Y-94819000D01*
X129969000Y-94852000D01*
X129950000Y-94885000D01*
X129930000Y-94916000D01*
X129908000Y-94946000D01*
X129885000Y-94976000D01*
X129861000Y-95004000D01*
X129835000Y-95031000D01*
X129808000Y-95057000D01*
X129780000Y-95081000D01*
X129750000Y-95104000D01*
X129720000Y-95126000D01*
X129689000Y-95146000D01*
X129656000Y-95165000D01*
X129623000Y-95183000D01*
X129589000Y-95199000D01*
X129555000Y-95213000D01*
X129520000Y-95225000D01*
X129484000Y-95236000D01*
X129448000Y-95245000D01*
X129411000Y-95253000D01*
X129374000Y-95259000D01*
X129337000Y-95263000D01*
X129337000Y-95013000D01*
X129357000Y-95011000D01*
X129381000Y-95008000D01*
X129405000Y-95004000D01*
X129429000Y-94999000D01*
X129453000Y-94992000D01*
X129476000Y-94985000D01*
X129499000Y-94976000D01*
X129521000Y-94966000D01*
X129543000Y-94955000D01*
X129565000Y-94943000D01*
X129585000Y-94930000D01*
X129605000Y-94916000D01*
X129625000Y-94901000D01*
X129643000Y-94885000D01*
X129661000Y-94869000D01*
X129678000Y-94851000D01*
X129695000Y-94833000D01*
X129710000Y-94814000D01*
X129724000Y-94794000D01*
X129737000Y-94773000D01*
X129750000Y-94752000D01*
X129761000Y-94730000D01*
X129771000Y-94708000D01*
X129781000Y-94685000D01*
X129789000Y-94662000D01*
X129796000Y-94639000D01*
X129801000Y-94615000D01*
X129806000Y-94591000D01*
X129809000Y-94567000D01*
X129812000Y-94538000D01*
X129812000Y-94533000D01*
X130067000Y-94533000D01*
X130063000Y-94570000D01*
G36*
X130063000Y-94570000D02*
G01*
X130057000Y-94607000D01*
X130049000Y-94644000D01*
X130040000Y-94680000D01*
X130029000Y-94716000D01*
X130017000Y-94751000D01*
X130003000Y-94785000D01*
X129987000Y-94819000D01*
X129969000Y-94852000D01*
X129950000Y-94885000D01*
X129930000Y-94916000D01*
X129908000Y-94946000D01*
X129885000Y-94976000D01*
X129861000Y-95004000D01*
X129835000Y-95031000D01*
X129808000Y-95057000D01*
X129780000Y-95081000D01*
X129750000Y-95104000D01*
X129720000Y-95126000D01*
X129689000Y-95146000D01*
X129656000Y-95165000D01*
X129623000Y-95183000D01*
X129589000Y-95199000D01*
X129555000Y-95213000D01*
X129520000Y-95225000D01*
X129484000Y-95236000D01*
X129448000Y-95245000D01*
X129411000Y-95253000D01*
X129374000Y-95259000D01*
X129337000Y-95263000D01*
X129337000Y-95013000D01*
X129357000Y-95011000D01*
X129381000Y-95008000D01*
X129405000Y-95004000D01*
X129429000Y-94999000D01*
X129453000Y-94992000D01*
X129476000Y-94985000D01*
X129499000Y-94976000D01*
X129521000Y-94966000D01*
X129543000Y-94955000D01*
X129565000Y-94943000D01*
X129585000Y-94930000D01*
X129605000Y-94916000D01*
X129625000Y-94901000D01*
X129643000Y-94885000D01*
X129661000Y-94869000D01*
X129678000Y-94851000D01*
X129695000Y-94833000D01*
X129710000Y-94814000D01*
X129724000Y-94794000D01*
X129737000Y-94773000D01*
X129750000Y-94752000D01*
X129761000Y-94730000D01*
X129771000Y-94708000D01*
X129781000Y-94685000D01*
X129789000Y-94662000D01*
X129796000Y-94639000D01*
X129801000Y-94615000D01*
X129806000Y-94591000D01*
X129809000Y-94567000D01*
X129812000Y-94538000D01*
X129812000Y-94533000D01*
X130067000Y-94533000D01*
X130063000Y-94570000D01*
G37*
X128293000Y-94919000D02*
X128304000Y-94921000D01*
X128315000Y-94922000D01*
X128325000Y-94925000D01*
X128335000Y-94928000D01*
X128345000Y-94932000D01*
X128355000Y-94936000D01*
X128365000Y-94940000D01*
X128374000Y-94945000D01*
X128384000Y-94951000D01*
X128392000Y-94957000D01*
X128401000Y-94964000D01*
X128409000Y-94971000D01*
X128417000Y-94978000D01*
X128424000Y-94986000D01*
X128431000Y-94994000D01*
X128438000Y-95003000D01*
X128444000Y-95011000D01*
X128450000Y-95021000D01*
X128455000Y-95030000D01*
X128459000Y-95040000D01*
X128463000Y-95050000D01*
X128467000Y-95060000D01*
X128470000Y-95070000D01*
X128473000Y-95080000D01*
X128474000Y-95091000D01*
X128476000Y-95102000D01*
X128477000Y-95112000D01*
X128477000Y-95123000D01*
X128477000Y-95134000D01*
X128476000Y-95144000D01*
X128474000Y-95155000D01*
X128473000Y-95166000D01*
X128470000Y-95176000D01*
X128467000Y-95186000D01*
X128463000Y-95196000D01*
X128459000Y-95206000D01*
X128455000Y-95216000D01*
X128450000Y-95226000D01*
X128444000Y-95235000D01*
X128438000Y-95243000D01*
X128431000Y-95252000D01*
X128424000Y-95260000D01*
X128417000Y-95268000D01*
X128409000Y-95275000D01*
X128401000Y-95282000D01*
X128392000Y-95289000D01*
X128384000Y-95295000D01*
X128375000Y-95301000D01*
X128365000Y-95306000D01*
X128355000Y-95310000D01*
X128345000Y-95314000D01*
X128335000Y-95318000D01*
X128325000Y-95321000D01*
X128315000Y-95324000D01*
X128304000Y-95325000D01*
X128293000Y-95327000D01*
X128283000Y-95328000D01*
X128272000Y-95328000D01*
X128261000Y-95328000D01*
X128251000Y-95327000D01*
X128240000Y-95325000D01*
X128229000Y-95324000D01*
X128219000Y-95321000D01*
X128209000Y-95318000D01*
X128199000Y-95314000D01*
X128189000Y-95310000D01*
X128179000Y-95306000D01*
X128170000Y-95301000D01*
X128160000Y-95295000D01*
X128152000Y-95289000D01*
X128143000Y-95282000D01*
X128135000Y-95275000D01*
X128127000Y-95268000D01*
X128120000Y-95260000D01*
X128113000Y-95252000D01*
X128106000Y-95243000D01*
X128100000Y-95235000D01*
X128094000Y-95226000D01*
X128089000Y-95216000D01*
X128085000Y-95206000D01*
X128081000Y-95196000D01*
X128077000Y-95186000D01*
X128074000Y-95176000D01*
X128071000Y-95166000D01*
X128070000Y-95155000D01*
X128068000Y-95144000D01*
X128067000Y-95134000D01*
X128067000Y-95123000D01*
X128067000Y-95112000D01*
X128068000Y-95102000D01*
X128070000Y-95091000D01*
X128071000Y-95080000D01*
X128074000Y-95070000D01*
X128077000Y-95060000D01*
X128081000Y-95050000D01*
X128085000Y-95040000D01*
X128089000Y-95030000D01*
X128094000Y-95021000D01*
X128100000Y-95011000D01*
X128106000Y-95003000D01*
X128113000Y-94994000D01*
X128120000Y-94986000D01*
X128127000Y-94978000D01*
X128135000Y-94971000D01*
X128143000Y-94964000D01*
X128152000Y-94957000D01*
X128160000Y-94951000D01*
X128170000Y-94945000D01*
X128179000Y-94940000D01*
X128189000Y-94936000D01*
X128199000Y-94932000D01*
X128209000Y-94928000D01*
X128219000Y-94925000D01*
X128229000Y-94922000D01*
X128240000Y-94921000D01*
X128251000Y-94919000D01*
X128261000Y-94918000D01*
X128272000Y-94918000D01*
X128283000Y-94918000D01*
X128293000Y-94919000D01*
G36*
X128293000Y-94919000D02*
G01*
X128304000Y-94921000D01*
X128315000Y-94922000D01*
X128325000Y-94925000D01*
X128335000Y-94928000D01*
X128345000Y-94932000D01*
X128355000Y-94936000D01*
X128365000Y-94940000D01*
X128374000Y-94945000D01*
X128384000Y-94951000D01*
X128392000Y-94957000D01*
X128401000Y-94964000D01*
X128409000Y-94971000D01*
X128417000Y-94978000D01*
X128424000Y-94986000D01*
X128431000Y-94994000D01*
X128438000Y-95003000D01*
X128444000Y-95011000D01*
X128450000Y-95021000D01*
X128455000Y-95030000D01*
X128459000Y-95040000D01*
X128463000Y-95050000D01*
X128467000Y-95060000D01*
X128470000Y-95070000D01*
X128473000Y-95080000D01*
X128474000Y-95091000D01*
X128476000Y-95102000D01*
X128477000Y-95112000D01*
X128477000Y-95123000D01*
X128477000Y-95134000D01*
X128476000Y-95144000D01*
X128474000Y-95155000D01*
X128473000Y-95166000D01*
X128470000Y-95176000D01*
X128467000Y-95186000D01*
X128463000Y-95196000D01*
X128459000Y-95206000D01*
X128455000Y-95216000D01*
X128450000Y-95226000D01*
X128444000Y-95235000D01*
X128438000Y-95243000D01*
X128431000Y-95252000D01*
X128424000Y-95260000D01*
X128417000Y-95268000D01*
X128409000Y-95275000D01*
X128401000Y-95282000D01*
X128392000Y-95289000D01*
X128384000Y-95295000D01*
X128375000Y-95301000D01*
X128365000Y-95306000D01*
X128355000Y-95310000D01*
X128345000Y-95314000D01*
X128335000Y-95318000D01*
X128325000Y-95321000D01*
X128315000Y-95324000D01*
X128304000Y-95325000D01*
X128293000Y-95327000D01*
X128283000Y-95328000D01*
X128272000Y-95328000D01*
X128261000Y-95328000D01*
X128251000Y-95327000D01*
X128240000Y-95325000D01*
X128229000Y-95324000D01*
X128219000Y-95321000D01*
X128209000Y-95318000D01*
X128199000Y-95314000D01*
X128189000Y-95310000D01*
X128179000Y-95306000D01*
X128170000Y-95301000D01*
X128160000Y-95295000D01*
X128152000Y-95289000D01*
X128143000Y-95282000D01*
X128135000Y-95275000D01*
X128127000Y-95268000D01*
X128120000Y-95260000D01*
X128113000Y-95252000D01*
X128106000Y-95243000D01*
X128100000Y-95235000D01*
X128094000Y-95226000D01*
X128089000Y-95216000D01*
X128085000Y-95206000D01*
X128081000Y-95196000D01*
X128077000Y-95186000D01*
X128074000Y-95176000D01*
X128071000Y-95166000D01*
X128070000Y-95155000D01*
X128068000Y-95144000D01*
X128067000Y-95134000D01*
X128067000Y-95123000D01*
X128067000Y-95112000D01*
X128068000Y-95102000D01*
X128070000Y-95091000D01*
X128071000Y-95080000D01*
X128074000Y-95070000D01*
X128077000Y-95060000D01*
X128081000Y-95050000D01*
X128085000Y-95040000D01*
X128089000Y-95030000D01*
X128094000Y-95021000D01*
X128100000Y-95011000D01*
X128106000Y-95003000D01*
X128113000Y-94994000D01*
X128120000Y-94986000D01*
X128127000Y-94978000D01*
X128135000Y-94971000D01*
X128143000Y-94964000D01*
X128152000Y-94957000D01*
X128160000Y-94951000D01*
X128170000Y-94945000D01*
X128179000Y-94940000D01*
X128189000Y-94936000D01*
X128199000Y-94932000D01*
X128209000Y-94928000D01*
X128219000Y-94925000D01*
X128229000Y-94922000D01*
X128240000Y-94921000D01*
X128251000Y-94919000D01*
X128261000Y-94918000D01*
X128272000Y-94918000D01*
X128283000Y-94918000D01*
X128293000Y-94919000D01*
G37*
X128293000Y-93279000D02*
X128304000Y-93281000D01*
X128315000Y-93282000D01*
X128325000Y-93285000D01*
X128335000Y-93288000D01*
X128345000Y-93292000D01*
X128355000Y-93296000D01*
X128365000Y-93300000D01*
X128375000Y-93305000D01*
X128384000Y-93311000D01*
X128392000Y-93317000D01*
X128401000Y-93324000D01*
X128409000Y-93331000D01*
X128417000Y-93338000D01*
X128424000Y-93346000D01*
X128431000Y-93354000D01*
X128438000Y-93363000D01*
X128444000Y-93371000D01*
X128450000Y-93381000D01*
X128455000Y-93390000D01*
X128459000Y-93400000D01*
X128463000Y-93410000D01*
X128467000Y-93420000D01*
X128470000Y-93430000D01*
X128473000Y-93440000D01*
X128474000Y-93451000D01*
X128476000Y-93462000D01*
X128477000Y-93472000D01*
X128477000Y-93483000D01*
X128477000Y-93494000D01*
X128476000Y-93504000D01*
X128474000Y-93515000D01*
X128473000Y-93526000D01*
X128470000Y-93536000D01*
X128467000Y-93546000D01*
X128463000Y-93556000D01*
X128459000Y-93566000D01*
X128455000Y-93576000D01*
X128450000Y-93586000D01*
X128444000Y-93595000D01*
X128438000Y-93603000D01*
X128431000Y-93612000D01*
X128424000Y-93620000D01*
X128417000Y-93628000D01*
X128409000Y-93635000D01*
X128401000Y-93642000D01*
X128392000Y-93649000D01*
X128384000Y-93655000D01*
X128374000Y-93661000D01*
X128365000Y-93666000D01*
X128355000Y-93670000D01*
X128345000Y-93674000D01*
X128335000Y-93678000D01*
X128325000Y-93681000D01*
X128315000Y-93684000D01*
X128304000Y-93685000D01*
X128293000Y-93687000D01*
X128283000Y-93688000D01*
X128272000Y-93688000D01*
X128261000Y-93688000D01*
X128251000Y-93687000D01*
X128240000Y-93685000D01*
X128229000Y-93684000D01*
X128219000Y-93681000D01*
X128209000Y-93678000D01*
X128199000Y-93674000D01*
X128189000Y-93670000D01*
X128179000Y-93666000D01*
X128170000Y-93661000D01*
X128160000Y-93655000D01*
X128152000Y-93649000D01*
X128143000Y-93642000D01*
X128135000Y-93635000D01*
X128127000Y-93628000D01*
X128120000Y-93620000D01*
X128113000Y-93612000D01*
X128106000Y-93603000D01*
X128100000Y-93595000D01*
X128094000Y-93585000D01*
X128089000Y-93576000D01*
X128085000Y-93566000D01*
X128081000Y-93556000D01*
X128077000Y-93546000D01*
X128074000Y-93536000D01*
X128071000Y-93526000D01*
X128070000Y-93515000D01*
X128068000Y-93504000D01*
X128067000Y-93494000D01*
X128067000Y-93483000D01*
X128067000Y-93478000D01*
X128067000Y-93468000D01*
X128068000Y-93457000D01*
X128069000Y-93447000D01*
X128071000Y-93436000D01*
X128074000Y-93426000D01*
X128077000Y-93416000D01*
X128080000Y-93406000D01*
X128084000Y-93397000D01*
X128089000Y-93387000D01*
X128094000Y-93378000D01*
X128099000Y-93369000D01*
X128105000Y-93360000D01*
X128112000Y-93352000D01*
X128118000Y-93344000D01*
X128126000Y-93337000D01*
X128133000Y-93329000D01*
X128141000Y-93323000D01*
X128149000Y-93316000D01*
X128158000Y-93310000D01*
X128167000Y-93305000D01*
X128176000Y-93300000D01*
X128186000Y-93295000D01*
X128195000Y-93291000D01*
X128205000Y-93288000D01*
X128215000Y-93285000D01*
X128225000Y-93282000D01*
X128236000Y-93280000D01*
X128246000Y-93279000D01*
X128257000Y-93278000D01*
X128267000Y-93278000D01*
X128272000Y-93278000D01*
X128283000Y-93278000D01*
X128293000Y-93279000D01*
G36*
X128293000Y-93279000D02*
G01*
X128304000Y-93281000D01*
X128315000Y-93282000D01*
X128325000Y-93285000D01*
X128335000Y-93288000D01*
X128345000Y-93292000D01*
X128355000Y-93296000D01*
X128365000Y-93300000D01*
X128375000Y-93305000D01*
X128384000Y-93311000D01*
X128392000Y-93317000D01*
X128401000Y-93324000D01*
X128409000Y-93331000D01*
X128417000Y-93338000D01*
X128424000Y-93346000D01*
X128431000Y-93354000D01*
X128438000Y-93363000D01*
X128444000Y-93371000D01*
X128450000Y-93381000D01*
X128455000Y-93390000D01*
X128459000Y-93400000D01*
X128463000Y-93410000D01*
X128467000Y-93420000D01*
X128470000Y-93430000D01*
X128473000Y-93440000D01*
X128474000Y-93451000D01*
X128476000Y-93462000D01*
X128477000Y-93472000D01*
X128477000Y-93483000D01*
X128477000Y-93494000D01*
X128476000Y-93504000D01*
X128474000Y-93515000D01*
X128473000Y-93526000D01*
X128470000Y-93536000D01*
X128467000Y-93546000D01*
X128463000Y-93556000D01*
X128459000Y-93566000D01*
X128455000Y-93576000D01*
X128450000Y-93586000D01*
X128444000Y-93595000D01*
X128438000Y-93603000D01*
X128431000Y-93612000D01*
X128424000Y-93620000D01*
X128417000Y-93628000D01*
X128409000Y-93635000D01*
X128401000Y-93642000D01*
X128392000Y-93649000D01*
X128384000Y-93655000D01*
X128374000Y-93661000D01*
X128365000Y-93666000D01*
X128355000Y-93670000D01*
X128345000Y-93674000D01*
X128335000Y-93678000D01*
X128325000Y-93681000D01*
X128315000Y-93684000D01*
X128304000Y-93685000D01*
X128293000Y-93687000D01*
X128283000Y-93688000D01*
X128272000Y-93688000D01*
X128261000Y-93688000D01*
X128251000Y-93687000D01*
X128240000Y-93685000D01*
X128229000Y-93684000D01*
X128219000Y-93681000D01*
X128209000Y-93678000D01*
X128199000Y-93674000D01*
X128189000Y-93670000D01*
X128179000Y-93666000D01*
X128170000Y-93661000D01*
X128160000Y-93655000D01*
X128152000Y-93649000D01*
X128143000Y-93642000D01*
X128135000Y-93635000D01*
X128127000Y-93628000D01*
X128120000Y-93620000D01*
X128113000Y-93612000D01*
X128106000Y-93603000D01*
X128100000Y-93595000D01*
X128094000Y-93585000D01*
X128089000Y-93576000D01*
X128085000Y-93566000D01*
X128081000Y-93556000D01*
X128077000Y-93546000D01*
X128074000Y-93536000D01*
X128071000Y-93526000D01*
X128070000Y-93515000D01*
X128068000Y-93504000D01*
X128067000Y-93494000D01*
X128067000Y-93483000D01*
X128067000Y-93478000D01*
X128067000Y-93468000D01*
X128068000Y-93457000D01*
X128069000Y-93447000D01*
X128071000Y-93436000D01*
X128074000Y-93426000D01*
X128077000Y-93416000D01*
X128080000Y-93406000D01*
X128084000Y-93397000D01*
X128089000Y-93387000D01*
X128094000Y-93378000D01*
X128099000Y-93369000D01*
X128105000Y-93360000D01*
X128112000Y-93352000D01*
X128118000Y-93344000D01*
X128126000Y-93337000D01*
X128133000Y-93329000D01*
X128141000Y-93323000D01*
X128149000Y-93316000D01*
X128158000Y-93310000D01*
X128167000Y-93305000D01*
X128176000Y-93300000D01*
X128186000Y-93295000D01*
X128195000Y-93291000D01*
X128205000Y-93288000D01*
X128215000Y-93285000D01*
X128225000Y-93282000D01*
X128236000Y-93280000D01*
X128246000Y-93279000D01*
X128257000Y-93278000D01*
X128267000Y-93278000D01*
X128272000Y-93278000D01*
X128283000Y-93278000D01*
X128293000Y-93279000D01*
G37*
X129316000Y-92110000D02*
X129330000Y-92111000D01*
X129344000Y-92114000D01*
X129358000Y-92117000D01*
X129372000Y-92121000D01*
X129386000Y-92126000D01*
X129399000Y-92132000D01*
X129412000Y-92138000D01*
X129425000Y-92145000D01*
X129437000Y-92152000D01*
X129449000Y-92161000D01*
X129460000Y-92169000D01*
X129471000Y-92179000D01*
X129481000Y-92189000D01*
X129491000Y-92199000D01*
X129501000Y-92210000D01*
X129509000Y-92221000D01*
X129518000Y-92233000D01*
X129525000Y-92245000D01*
X129532000Y-92258000D01*
X129538000Y-92271000D01*
X129544000Y-92284000D01*
X129549000Y-92298000D01*
X129553000Y-92312000D01*
X129556000Y-92326000D01*
X129559000Y-92340000D01*
X129560000Y-92354000D01*
X129562000Y-92369000D01*
X129562000Y-92383000D01*
X129562000Y-92397000D01*
X129560000Y-92412000D01*
X129559000Y-92426000D01*
X129556000Y-92440000D01*
X129553000Y-92454000D01*
X129549000Y-92468000D01*
X129544000Y-92482000D01*
X129538000Y-92495000D01*
X129532000Y-92508000D01*
X129525000Y-92521000D01*
X129518000Y-92533000D01*
X129509000Y-92545000D01*
X129501000Y-92556000D01*
X129491000Y-92567000D01*
X129481000Y-92577000D01*
X129471000Y-92587000D01*
X129460000Y-92597000D01*
X129449000Y-92605000D01*
X129437000Y-92614000D01*
X129425000Y-92621000D01*
X129412000Y-92628000D01*
X129399000Y-92634000D01*
X129386000Y-92640000D01*
X129372000Y-92645000D01*
X129358000Y-92649000D01*
X129344000Y-92652000D01*
X129330000Y-92655000D01*
X129316000Y-92656000D01*
X129301000Y-92658000D01*
X129287000Y-92658000D01*
X129273000Y-92658000D01*
X129258000Y-92656000D01*
X129244000Y-92655000D01*
X129230000Y-92652000D01*
X129216000Y-92649000D01*
X129202000Y-92645000D01*
X129188000Y-92640000D01*
X129175000Y-92634000D01*
X129162000Y-92628000D01*
X129149000Y-92621000D01*
X129137000Y-92614000D01*
X129125000Y-92605000D01*
X129114000Y-92597000D01*
X129103000Y-92587000D01*
X129093000Y-92577000D01*
X129083000Y-92567000D01*
X129073000Y-92556000D01*
X129065000Y-92545000D01*
X129056000Y-92533000D01*
X129049000Y-92521000D01*
X129042000Y-92508000D01*
X129036000Y-92495000D01*
X129030000Y-92482000D01*
X129025000Y-92468000D01*
X129021000Y-92454000D01*
X129018000Y-92440000D01*
X129015000Y-92426000D01*
X129014000Y-92412000D01*
X129012000Y-92397000D01*
X129012000Y-92383000D01*
X129012000Y-92378000D01*
X129012000Y-92364000D01*
X129013000Y-92350000D01*
X129015000Y-92336000D01*
X129018000Y-92322000D01*
X129021000Y-92308000D01*
X129025000Y-92295000D01*
X129030000Y-92281000D01*
X129035000Y-92268000D01*
X129041000Y-92255000D01*
X129048000Y-92243000D01*
X129056000Y-92231000D01*
X129064000Y-92219000D01*
X129072000Y-92208000D01*
X129081000Y-92197000D01*
X129091000Y-92187000D01*
X129101000Y-92177000D01*
X129112000Y-92168000D01*
X129123000Y-92160000D01*
X129135000Y-92152000D01*
X129147000Y-92144000D01*
X129159000Y-92137000D01*
X129172000Y-92131000D01*
X129185000Y-92126000D01*
X129199000Y-92121000D01*
X129212000Y-92117000D01*
X129226000Y-92114000D01*
X129240000Y-92111000D01*
X129254000Y-92109000D01*
X129268000Y-92108000D01*
X129282000Y-92108000D01*
X129287000Y-92108000D01*
X129301000Y-92108000D01*
X129316000Y-92110000D01*
G36*
X129316000Y-92110000D02*
G01*
X129330000Y-92111000D01*
X129344000Y-92114000D01*
X129358000Y-92117000D01*
X129372000Y-92121000D01*
X129386000Y-92126000D01*
X129399000Y-92132000D01*
X129412000Y-92138000D01*
X129425000Y-92145000D01*
X129437000Y-92152000D01*
X129449000Y-92161000D01*
X129460000Y-92169000D01*
X129471000Y-92179000D01*
X129481000Y-92189000D01*
X129491000Y-92199000D01*
X129501000Y-92210000D01*
X129509000Y-92221000D01*
X129518000Y-92233000D01*
X129525000Y-92245000D01*
X129532000Y-92258000D01*
X129538000Y-92271000D01*
X129544000Y-92284000D01*
X129549000Y-92298000D01*
X129553000Y-92312000D01*
X129556000Y-92326000D01*
X129559000Y-92340000D01*
X129560000Y-92354000D01*
X129562000Y-92369000D01*
X129562000Y-92383000D01*
X129562000Y-92397000D01*
X129560000Y-92412000D01*
X129559000Y-92426000D01*
X129556000Y-92440000D01*
X129553000Y-92454000D01*
X129549000Y-92468000D01*
X129544000Y-92482000D01*
X129538000Y-92495000D01*
X129532000Y-92508000D01*
X129525000Y-92521000D01*
X129518000Y-92533000D01*
X129509000Y-92545000D01*
X129501000Y-92556000D01*
X129491000Y-92567000D01*
X129481000Y-92577000D01*
X129471000Y-92587000D01*
X129460000Y-92597000D01*
X129449000Y-92605000D01*
X129437000Y-92614000D01*
X129425000Y-92621000D01*
X129412000Y-92628000D01*
X129399000Y-92634000D01*
X129386000Y-92640000D01*
X129372000Y-92645000D01*
X129358000Y-92649000D01*
X129344000Y-92652000D01*
X129330000Y-92655000D01*
X129316000Y-92656000D01*
X129301000Y-92658000D01*
X129287000Y-92658000D01*
X129273000Y-92658000D01*
X129258000Y-92656000D01*
X129244000Y-92655000D01*
X129230000Y-92652000D01*
X129216000Y-92649000D01*
X129202000Y-92645000D01*
X129188000Y-92640000D01*
X129175000Y-92634000D01*
X129162000Y-92628000D01*
X129149000Y-92621000D01*
X129137000Y-92614000D01*
X129125000Y-92605000D01*
X129114000Y-92597000D01*
X129103000Y-92587000D01*
X129093000Y-92577000D01*
X129083000Y-92567000D01*
X129073000Y-92556000D01*
X129065000Y-92545000D01*
X129056000Y-92533000D01*
X129049000Y-92521000D01*
X129042000Y-92508000D01*
X129036000Y-92495000D01*
X129030000Y-92482000D01*
X129025000Y-92468000D01*
X129021000Y-92454000D01*
X129018000Y-92440000D01*
X129015000Y-92426000D01*
X129014000Y-92412000D01*
X129012000Y-92397000D01*
X129012000Y-92383000D01*
X129012000Y-92378000D01*
X129012000Y-92364000D01*
X129013000Y-92350000D01*
X129015000Y-92336000D01*
X129018000Y-92322000D01*
X129021000Y-92308000D01*
X129025000Y-92295000D01*
X129030000Y-92281000D01*
X129035000Y-92268000D01*
X129041000Y-92255000D01*
X129048000Y-92243000D01*
X129056000Y-92231000D01*
X129064000Y-92219000D01*
X129072000Y-92208000D01*
X129081000Y-92197000D01*
X129091000Y-92187000D01*
X129101000Y-92177000D01*
X129112000Y-92168000D01*
X129123000Y-92160000D01*
X129135000Y-92152000D01*
X129147000Y-92144000D01*
X129159000Y-92137000D01*
X129172000Y-92131000D01*
X129185000Y-92126000D01*
X129199000Y-92121000D01*
X129212000Y-92117000D01*
X129226000Y-92114000D01*
X129240000Y-92111000D01*
X129254000Y-92109000D01*
X129268000Y-92108000D01*
X129282000Y-92108000D01*
X129287000Y-92108000D01*
X129301000Y-92108000D01*
X129316000Y-92110000D01*
G37*
X130328000Y-94919000D02*
X130338000Y-94920000D01*
X130349000Y-94922000D01*
X130359000Y-94925000D01*
X130369000Y-94928000D01*
X130379000Y-94931000D01*
X130388000Y-94935000D01*
X130398000Y-94940000D01*
X130407000Y-94945000D01*
X130416000Y-94950000D01*
X130425000Y-94956000D01*
X130433000Y-94963000D01*
X130441000Y-94969000D01*
X130448000Y-94977000D01*
X130456000Y-94984000D01*
X130462000Y-94992000D01*
X130469000Y-95000000D01*
X130475000Y-95009000D01*
X130480000Y-95018000D01*
X130485000Y-95027000D01*
X130490000Y-95037000D01*
X130494000Y-95046000D01*
X130497000Y-95056000D01*
X130500000Y-95066000D01*
X130503000Y-95076000D01*
X130505000Y-95087000D01*
X130506000Y-95097000D01*
X130507000Y-95108000D01*
X130507000Y-95118000D01*
X130507000Y-95123000D01*
X130507000Y-95134000D01*
X130506000Y-95144000D01*
X130504000Y-95155000D01*
X130503000Y-95166000D01*
X130500000Y-95176000D01*
X130497000Y-95186000D01*
X130493000Y-95196000D01*
X130489000Y-95206000D01*
X130485000Y-95216000D01*
X130480000Y-95226000D01*
X130474000Y-95235000D01*
X130468000Y-95243000D01*
X130461000Y-95252000D01*
X130454000Y-95260000D01*
X130447000Y-95268000D01*
X130439000Y-95275000D01*
X130431000Y-95282000D01*
X130422000Y-95289000D01*
X130414000Y-95295000D01*
X130404000Y-95301000D01*
X130395000Y-95306000D01*
X130385000Y-95310000D01*
X130375000Y-95314000D01*
X130365000Y-95318000D01*
X130355000Y-95321000D01*
X130345000Y-95324000D01*
X130334000Y-95325000D01*
X130323000Y-95327000D01*
X130313000Y-95328000D01*
X130302000Y-95328000D01*
X130297000Y-95328000D01*
X130287000Y-95328000D01*
X130276000Y-95327000D01*
X130266000Y-95326000D01*
X130255000Y-95324000D01*
X130245000Y-95321000D01*
X130235000Y-95318000D01*
X130225000Y-95315000D01*
X130216000Y-95311000D01*
X130206000Y-95306000D01*
X130197000Y-95301000D01*
X130188000Y-95296000D01*
X130179000Y-95290000D01*
X130171000Y-95283000D01*
X130163000Y-95277000D01*
X130156000Y-95269000D01*
X130148000Y-95262000D01*
X130142000Y-95254000D01*
X130135000Y-95246000D01*
X130129000Y-95237000D01*
X130124000Y-95228000D01*
X130119000Y-95219000D01*
X130114000Y-95209000D01*
X130110000Y-95200000D01*
X130107000Y-95190000D01*
X130104000Y-95180000D01*
X130101000Y-95170000D01*
X130099000Y-95159000D01*
X130098000Y-95149000D01*
X130097000Y-95138000D01*
X130097000Y-95128000D01*
X130097000Y-95117000D01*
X130098000Y-95106000D01*
X130100000Y-95095000D01*
X130102000Y-95084000D01*
X130104000Y-95074000D01*
X130107000Y-95063000D01*
X130111000Y-95053000D01*
X130115000Y-95043000D01*
X130120000Y-95033000D01*
X130125000Y-95023000D01*
X130131000Y-95014000D01*
X130137000Y-95005000D01*
X130144000Y-94996000D01*
X130151000Y-94987000D01*
X130159000Y-94980000D01*
X130166000Y-94972000D01*
X130175000Y-94965000D01*
X130184000Y-94958000D01*
X130193000Y-94952000D01*
X130202000Y-94946000D01*
X130212000Y-94941000D01*
X130222000Y-94936000D01*
X130232000Y-94932000D01*
X130242000Y-94928000D01*
X130253000Y-94925000D01*
X130263000Y-94923000D01*
X130274000Y-94921000D01*
X130285000Y-94919000D01*
X130296000Y-94918000D01*
X130307000Y-94918000D01*
X130317000Y-94918000D01*
X130328000Y-94919000D01*
G36*
X130328000Y-94919000D02*
G01*
X130338000Y-94920000D01*
X130349000Y-94922000D01*
X130359000Y-94925000D01*
X130369000Y-94928000D01*
X130379000Y-94931000D01*
X130388000Y-94935000D01*
X130398000Y-94940000D01*
X130407000Y-94945000D01*
X130416000Y-94950000D01*
X130425000Y-94956000D01*
X130433000Y-94963000D01*
X130441000Y-94969000D01*
X130448000Y-94977000D01*
X130456000Y-94984000D01*
X130462000Y-94992000D01*
X130469000Y-95000000D01*
X130475000Y-95009000D01*
X130480000Y-95018000D01*
X130485000Y-95027000D01*
X130490000Y-95037000D01*
X130494000Y-95046000D01*
X130497000Y-95056000D01*
X130500000Y-95066000D01*
X130503000Y-95076000D01*
X130505000Y-95087000D01*
X130506000Y-95097000D01*
X130507000Y-95108000D01*
X130507000Y-95118000D01*
X130507000Y-95123000D01*
X130507000Y-95134000D01*
X130506000Y-95144000D01*
X130504000Y-95155000D01*
X130503000Y-95166000D01*
X130500000Y-95176000D01*
X130497000Y-95186000D01*
X130493000Y-95196000D01*
X130489000Y-95206000D01*
X130485000Y-95216000D01*
X130480000Y-95226000D01*
X130474000Y-95235000D01*
X130468000Y-95243000D01*
X130461000Y-95252000D01*
X130454000Y-95260000D01*
X130447000Y-95268000D01*
X130439000Y-95275000D01*
X130431000Y-95282000D01*
X130422000Y-95289000D01*
X130414000Y-95295000D01*
X130404000Y-95301000D01*
X130395000Y-95306000D01*
X130385000Y-95310000D01*
X130375000Y-95314000D01*
X130365000Y-95318000D01*
X130355000Y-95321000D01*
X130345000Y-95324000D01*
X130334000Y-95325000D01*
X130323000Y-95327000D01*
X130313000Y-95328000D01*
X130302000Y-95328000D01*
X130297000Y-95328000D01*
X130287000Y-95328000D01*
X130276000Y-95327000D01*
X130266000Y-95326000D01*
X130255000Y-95324000D01*
X130245000Y-95321000D01*
X130235000Y-95318000D01*
X130225000Y-95315000D01*
X130216000Y-95311000D01*
X130206000Y-95306000D01*
X130197000Y-95301000D01*
X130188000Y-95296000D01*
X130179000Y-95290000D01*
X130171000Y-95283000D01*
X130163000Y-95277000D01*
X130156000Y-95269000D01*
X130148000Y-95262000D01*
X130142000Y-95254000D01*
X130135000Y-95246000D01*
X130129000Y-95237000D01*
X130124000Y-95228000D01*
X130119000Y-95219000D01*
X130114000Y-95209000D01*
X130110000Y-95200000D01*
X130107000Y-95190000D01*
X130104000Y-95180000D01*
X130101000Y-95170000D01*
X130099000Y-95159000D01*
X130098000Y-95149000D01*
X130097000Y-95138000D01*
X130097000Y-95128000D01*
X130097000Y-95117000D01*
X130098000Y-95106000D01*
X130100000Y-95095000D01*
X130102000Y-95084000D01*
X130104000Y-95074000D01*
X130107000Y-95063000D01*
X130111000Y-95053000D01*
X130115000Y-95043000D01*
X130120000Y-95033000D01*
X130125000Y-95023000D01*
X130131000Y-95014000D01*
X130137000Y-95005000D01*
X130144000Y-94996000D01*
X130151000Y-94987000D01*
X130159000Y-94980000D01*
X130166000Y-94972000D01*
X130175000Y-94965000D01*
X130184000Y-94958000D01*
X130193000Y-94952000D01*
X130202000Y-94946000D01*
X130212000Y-94941000D01*
X130222000Y-94936000D01*
X130232000Y-94932000D01*
X130242000Y-94928000D01*
X130253000Y-94925000D01*
X130263000Y-94923000D01*
X130274000Y-94921000D01*
X130285000Y-94919000D01*
X130296000Y-94918000D01*
X130307000Y-94918000D01*
X130317000Y-94918000D01*
X130328000Y-94919000D01*
G37*
X130288000Y-92085000D02*
X130303000Y-92087000D01*
X130318000Y-92089000D01*
X130333000Y-92093000D01*
X130348000Y-92097000D01*
X130363000Y-92103000D01*
X130377000Y-92109000D01*
X130391000Y-92115000D01*
X130404000Y-92123000D01*
X130418000Y-92131000D01*
X130430000Y-92139000D01*
X130443000Y-92149000D01*
X130454000Y-92159000D01*
X130466000Y-92169000D01*
X130476000Y-92181000D01*
X130486000Y-92192000D01*
X130496000Y-92205000D01*
X130504000Y-92217000D01*
X130512000Y-92231000D01*
X130520000Y-92244000D01*
X130526000Y-92258000D01*
X130532000Y-92272000D01*
X130538000Y-92287000D01*
X130542000Y-92302000D01*
X130546000Y-92317000D01*
X130548000Y-92332000D01*
X130550000Y-92347000D01*
X130552000Y-92363000D01*
X130552000Y-92378000D01*
X130552000Y-92388000D01*
X130552000Y-92403000D01*
X130550000Y-92419000D01*
X130548000Y-92434000D01*
X130546000Y-92449000D01*
X130542000Y-92464000D01*
X130538000Y-92479000D01*
X130532000Y-92494000D01*
X130526000Y-92508000D01*
X130520000Y-92522000D01*
X130512000Y-92535000D01*
X130504000Y-92549000D01*
X130496000Y-92561000D01*
X130486000Y-92574000D01*
X130476000Y-92585000D01*
X130466000Y-92597000D01*
X130454000Y-92607000D01*
X130443000Y-92617000D01*
X130430000Y-92627000D01*
X130418000Y-92635000D01*
X130404000Y-92643000D01*
X130391000Y-92651000D01*
X130377000Y-92657000D01*
X130363000Y-92663000D01*
X130348000Y-92669000D01*
X130333000Y-92673000D01*
X130318000Y-92677000D01*
X130303000Y-92679000D01*
X130288000Y-92681000D01*
X130272000Y-92683000D01*
X130257000Y-92683000D01*
X130252000Y-92683000D01*
X130236000Y-92683000D01*
X130221000Y-92681000D01*
X130205000Y-92679000D01*
X130190000Y-92676000D01*
X130174000Y-92673000D01*
X130159000Y-92668000D01*
X130144000Y-92663000D01*
X130130000Y-92657000D01*
X130116000Y-92650000D01*
X130102000Y-92643000D01*
X130089000Y-92635000D01*
X130076000Y-92626000D01*
X130063000Y-92616000D01*
X130051000Y-92606000D01*
X130040000Y-92595000D01*
X130029000Y-92584000D01*
X130019000Y-92572000D01*
X130009000Y-92559000D01*
X130000000Y-92546000D01*
X129992000Y-92533000D01*
X129985000Y-92519000D01*
X129978000Y-92505000D01*
X129972000Y-92491000D01*
X129967000Y-92476000D01*
X129962000Y-92461000D01*
X129959000Y-92445000D01*
X129956000Y-92430000D01*
X129954000Y-92414000D01*
X129952000Y-92399000D01*
X129952000Y-92383000D01*
X129952000Y-92367000D01*
X129954000Y-92352000D01*
X129956000Y-92336000D01*
X129959000Y-92321000D01*
X129962000Y-92305000D01*
X129967000Y-92290000D01*
X129972000Y-92275000D01*
X129978000Y-92261000D01*
X129985000Y-92247000D01*
X129992000Y-92233000D01*
X130000000Y-92220000D01*
X130009000Y-92207000D01*
X130019000Y-92194000D01*
X130029000Y-92182000D01*
X130040000Y-92171000D01*
X130051000Y-92160000D01*
X130063000Y-92150000D01*
X130076000Y-92140000D01*
X130089000Y-92131000D01*
X130102000Y-92123000D01*
X130116000Y-92116000D01*
X130130000Y-92109000D01*
X130144000Y-92103000D01*
X130159000Y-92098000D01*
X130174000Y-92093000D01*
X130190000Y-92090000D01*
X130205000Y-92087000D01*
X130221000Y-92085000D01*
X130236000Y-92083000D01*
X130252000Y-92083000D01*
X130257000Y-92083000D01*
X130272000Y-92083000D01*
X130288000Y-92085000D01*
G36*
X130288000Y-92085000D02*
G01*
X130303000Y-92087000D01*
X130318000Y-92089000D01*
X130333000Y-92093000D01*
X130348000Y-92097000D01*
X130363000Y-92103000D01*
X130377000Y-92109000D01*
X130391000Y-92115000D01*
X130404000Y-92123000D01*
X130418000Y-92131000D01*
X130430000Y-92139000D01*
X130443000Y-92149000D01*
X130454000Y-92159000D01*
X130466000Y-92169000D01*
X130476000Y-92181000D01*
X130486000Y-92192000D01*
X130496000Y-92205000D01*
X130504000Y-92217000D01*
X130512000Y-92231000D01*
X130520000Y-92244000D01*
X130526000Y-92258000D01*
X130532000Y-92272000D01*
X130538000Y-92287000D01*
X130542000Y-92302000D01*
X130546000Y-92317000D01*
X130548000Y-92332000D01*
X130550000Y-92347000D01*
X130552000Y-92363000D01*
X130552000Y-92378000D01*
X130552000Y-92388000D01*
X130552000Y-92403000D01*
X130550000Y-92419000D01*
X130548000Y-92434000D01*
X130546000Y-92449000D01*
X130542000Y-92464000D01*
X130538000Y-92479000D01*
X130532000Y-92494000D01*
X130526000Y-92508000D01*
X130520000Y-92522000D01*
X130512000Y-92535000D01*
X130504000Y-92549000D01*
X130496000Y-92561000D01*
X130486000Y-92574000D01*
X130476000Y-92585000D01*
X130466000Y-92597000D01*
X130454000Y-92607000D01*
X130443000Y-92617000D01*
X130430000Y-92627000D01*
X130418000Y-92635000D01*
X130404000Y-92643000D01*
X130391000Y-92651000D01*
X130377000Y-92657000D01*
X130363000Y-92663000D01*
X130348000Y-92669000D01*
X130333000Y-92673000D01*
X130318000Y-92677000D01*
X130303000Y-92679000D01*
X130288000Y-92681000D01*
X130272000Y-92683000D01*
X130257000Y-92683000D01*
X130252000Y-92683000D01*
X130236000Y-92683000D01*
X130221000Y-92681000D01*
X130205000Y-92679000D01*
X130190000Y-92676000D01*
X130174000Y-92673000D01*
X130159000Y-92668000D01*
X130144000Y-92663000D01*
X130130000Y-92657000D01*
X130116000Y-92650000D01*
X130102000Y-92643000D01*
X130089000Y-92635000D01*
X130076000Y-92626000D01*
X130063000Y-92616000D01*
X130051000Y-92606000D01*
X130040000Y-92595000D01*
X130029000Y-92584000D01*
X130019000Y-92572000D01*
X130009000Y-92559000D01*
X130000000Y-92546000D01*
X129992000Y-92533000D01*
X129985000Y-92519000D01*
X129978000Y-92505000D01*
X129972000Y-92491000D01*
X129967000Y-92476000D01*
X129962000Y-92461000D01*
X129959000Y-92445000D01*
X129956000Y-92430000D01*
X129954000Y-92414000D01*
X129952000Y-92399000D01*
X129952000Y-92383000D01*
X129952000Y-92367000D01*
X129954000Y-92352000D01*
X129956000Y-92336000D01*
X129959000Y-92321000D01*
X129962000Y-92305000D01*
X129967000Y-92290000D01*
X129972000Y-92275000D01*
X129978000Y-92261000D01*
X129985000Y-92247000D01*
X129992000Y-92233000D01*
X130000000Y-92220000D01*
X130009000Y-92207000D01*
X130019000Y-92194000D01*
X130029000Y-92182000D01*
X130040000Y-92171000D01*
X130051000Y-92160000D01*
X130063000Y-92150000D01*
X130076000Y-92140000D01*
X130089000Y-92131000D01*
X130102000Y-92123000D01*
X130116000Y-92116000D01*
X130130000Y-92109000D01*
X130144000Y-92103000D01*
X130159000Y-92098000D01*
X130174000Y-92093000D01*
X130190000Y-92090000D01*
X130205000Y-92087000D01*
X130221000Y-92085000D01*
X130236000Y-92083000D01*
X130252000Y-92083000D01*
X130257000Y-92083000D01*
X130272000Y-92083000D01*
X130288000Y-92085000D01*
G37*
X130323000Y-93279000D02*
X130334000Y-93281000D01*
X130345000Y-93282000D01*
X130355000Y-93285000D01*
X130365000Y-93288000D01*
X130375000Y-93292000D01*
X130385000Y-93296000D01*
X130395000Y-93300000D01*
X130404000Y-93305000D01*
X130414000Y-93311000D01*
X130422000Y-93317000D01*
X130431000Y-93324000D01*
X130439000Y-93331000D01*
X130447000Y-93338000D01*
X130454000Y-93346000D01*
X130461000Y-93354000D01*
X130468000Y-93363000D01*
X130474000Y-93371000D01*
X130480000Y-93381000D01*
X130485000Y-93390000D01*
X130489000Y-93400000D01*
X130493000Y-93410000D01*
X130497000Y-93420000D01*
X130500000Y-93430000D01*
X130503000Y-93440000D01*
X130504000Y-93451000D01*
X130506000Y-93462000D01*
X130507000Y-93472000D01*
X130507000Y-93483000D01*
X130507000Y-93488000D01*
X130507000Y-93498000D01*
X130506000Y-93509000D01*
X130505000Y-93519000D01*
X130503000Y-93530000D01*
X130500000Y-93540000D01*
X130497000Y-93550000D01*
X130494000Y-93560000D01*
X130490000Y-93569000D01*
X130485000Y-93579000D01*
X130480000Y-93588000D01*
X130475000Y-93597000D01*
X130469000Y-93606000D01*
X130462000Y-93614000D01*
X130456000Y-93622000D01*
X130448000Y-93629000D01*
X130441000Y-93637000D01*
X130433000Y-93643000D01*
X130425000Y-93650000D01*
X130416000Y-93656000D01*
X130407000Y-93661000D01*
X130398000Y-93666000D01*
X130388000Y-93671000D01*
X130379000Y-93675000D01*
X130369000Y-93678000D01*
X130359000Y-93681000D01*
X130349000Y-93684000D01*
X130338000Y-93686000D01*
X130328000Y-93687000D01*
X130317000Y-93688000D01*
X130307000Y-93688000D01*
X130297000Y-93688000D01*
X130287000Y-93688000D01*
X130276000Y-93687000D01*
X130266000Y-93686000D01*
X130255000Y-93684000D01*
X130245000Y-93681000D01*
X130235000Y-93678000D01*
X130225000Y-93675000D01*
X130216000Y-93671000D01*
X130206000Y-93666000D01*
X130197000Y-93661000D01*
X130188000Y-93656000D01*
X130179000Y-93650000D01*
X130171000Y-93643000D01*
X130163000Y-93637000D01*
X130156000Y-93629000D01*
X130148000Y-93622000D01*
X130142000Y-93614000D01*
X130135000Y-93606000D01*
X130129000Y-93597000D01*
X130124000Y-93588000D01*
X130119000Y-93579000D01*
X130114000Y-93569000D01*
X130110000Y-93560000D01*
X130107000Y-93550000D01*
X130104000Y-93540000D01*
X130101000Y-93530000D01*
X130099000Y-93519000D01*
X130098000Y-93509000D01*
X130097000Y-93498000D01*
X130097000Y-93488000D01*
X130097000Y-93483000D01*
X130097000Y-93472000D01*
X130098000Y-93462000D01*
X130100000Y-93451000D01*
X130101000Y-93440000D01*
X130104000Y-93430000D01*
X130107000Y-93420000D01*
X130111000Y-93410000D01*
X130115000Y-93400000D01*
X130119000Y-93390000D01*
X130124000Y-93381000D01*
X130130000Y-93371000D01*
X130136000Y-93363000D01*
X130143000Y-93354000D01*
X130150000Y-93346000D01*
X130157000Y-93338000D01*
X130165000Y-93331000D01*
X130173000Y-93324000D01*
X130182000Y-93317000D01*
X130190000Y-93311000D01*
X130199000Y-93305000D01*
X130209000Y-93300000D01*
X130219000Y-93296000D01*
X130229000Y-93292000D01*
X130239000Y-93288000D01*
X130249000Y-93285000D01*
X130259000Y-93282000D01*
X130270000Y-93281000D01*
X130281000Y-93279000D01*
X130291000Y-93278000D01*
X130302000Y-93278000D01*
X130313000Y-93278000D01*
X130323000Y-93279000D01*
G36*
X130323000Y-93279000D02*
G01*
X130334000Y-93281000D01*
X130345000Y-93282000D01*
X130355000Y-93285000D01*
X130365000Y-93288000D01*
X130375000Y-93292000D01*
X130385000Y-93296000D01*
X130395000Y-93300000D01*
X130404000Y-93305000D01*
X130414000Y-93311000D01*
X130422000Y-93317000D01*
X130431000Y-93324000D01*
X130439000Y-93331000D01*
X130447000Y-93338000D01*
X130454000Y-93346000D01*
X130461000Y-93354000D01*
X130468000Y-93363000D01*
X130474000Y-93371000D01*
X130480000Y-93381000D01*
X130485000Y-93390000D01*
X130489000Y-93400000D01*
X130493000Y-93410000D01*
X130497000Y-93420000D01*
X130500000Y-93430000D01*
X130503000Y-93440000D01*
X130504000Y-93451000D01*
X130506000Y-93462000D01*
X130507000Y-93472000D01*
X130507000Y-93483000D01*
X130507000Y-93488000D01*
X130507000Y-93498000D01*
X130506000Y-93509000D01*
X130505000Y-93519000D01*
X130503000Y-93530000D01*
X130500000Y-93540000D01*
X130497000Y-93550000D01*
X130494000Y-93560000D01*
X130490000Y-93569000D01*
X130485000Y-93579000D01*
X130480000Y-93588000D01*
X130475000Y-93597000D01*
X130469000Y-93606000D01*
X130462000Y-93614000D01*
X130456000Y-93622000D01*
X130448000Y-93629000D01*
X130441000Y-93637000D01*
X130433000Y-93643000D01*
X130425000Y-93650000D01*
X130416000Y-93656000D01*
X130407000Y-93661000D01*
X130398000Y-93666000D01*
X130388000Y-93671000D01*
X130379000Y-93675000D01*
X130369000Y-93678000D01*
X130359000Y-93681000D01*
X130349000Y-93684000D01*
X130338000Y-93686000D01*
X130328000Y-93687000D01*
X130317000Y-93688000D01*
X130307000Y-93688000D01*
X130297000Y-93688000D01*
X130287000Y-93688000D01*
X130276000Y-93687000D01*
X130266000Y-93686000D01*
X130255000Y-93684000D01*
X130245000Y-93681000D01*
X130235000Y-93678000D01*
X130225000Y-93675000D01*
X130216000Y-93671000D01*
X130206000Y-93666000D01*
X130197000Y-93661000D01*
X130188000Y-93656000D01*
X130179000Y-93650000D01*
X130171000Y-93643000D01*
X130163000Y-93637000D01*
X130156000Y-93629000D01*
X130148000Y-93622000D01*
X130142000Y-93614000D01*
X130135000Y-93606000D01*
X130129000Y-93597000D01*
X130124000Y-93588000D01*
X130119000Y-93579000D01*
X130114000Y-93569000D01*
X130110000Y-93560000D01*
X130107000Y-93550000D01*
X130104000Y-93540000D01*
X130101000Y-93530000D01*
X130099000Y-93519000D01*
X130098000Y-93509000D01*
X130097000Y-93498000D01*
X130097000Y-93488000D01*
X130097000Y-93483000D01*
X130097000Y-93472000D01*
X130098000Y-93462000D01*
X130100000Y-93451000D01*
X130101000Y-93440000D01*
X130104000Y-93430000D01*
X130107000Y-93420000D01*
X130111000Y-93410000D01*
X130115000Y-93400000D01*
X130119000Y-93390000D01*
X130124000Y-93381000D01*
X130130000Y-93371000D01*
X130136000Y-93363000D01*
X130143000Y-93354000D01*
X130150000Y-93346000D01*
X130157000Y-93338000D01*
X130165000Y-93331000D01*
X130173000Y-93324000D01*
X130182000Y-93317000D01*
X130190000Y-93311000D01*
X130199000Y-93305000D01*
X130209000Y-93300000D01*
X130219000Y-93296000D01*
X130229000Y-93292000D01*
X130239000Y-93288000D01*
X130249000Y-93285000D01*
X130259000Y-93282000D01*
X130270000Y-93281000D01*
X130281000Y-93279000D01*
X130291000Y-93278000D01*
X130302000Y-93278000D01*
X130313000Y-93278000D01*
X130323000Y-93279000D01*
G37*
X128362000Y-92085000D02*
X128377000Y-92087000D01*
X128392000Y-92089000D01*
X128407000Y-92093000D01*
X128422000Y-92097000D01*
X128436000Y-92102000D01*
X128450000Y-92108000D01*
X128464000Y-92115000D01*
X128477000Y-92122000D01*
X128490000Y-92130000D01*
X128502000Y-92138000D01*
X128515000Y-92148000D01*
X128526000Y-92157000D01*
X128537000Y-92168000D01*
X128548000Y-92179000D01*
X128557000Y-92190000D01*
X128567000Y-92203000D01*
X128575000Y-92215000D01*
X128583000Y-92228000D01*
X128590000Y-92241000D01*
X128597000Y-92255000D01*
X128603000Y-92269000D01*
X128608000Y-92283000D01*
X128612000Y-92298000D01*
X128616000Y-92313000D01*
X128618000Y-92328000D01*
X128620000Y-92343000D01*
X128622000Y-92358000D01*
X128622000Y-92373000D01*
X128622000Y-92388000D01*
X128622000Y-92403000D01*
X128620000Y-92419000D01*
X128618000Y-92434000D01*
X128616000Y-92449000D01*
X128612000Y-92464000D01*
X128608000Y-92479000D01*
X128602000Y-92494000D01*
X128596000Y-92508000D01*
X128590000Y-92522000D01*
X128582000Y-92535000D01*
X128574000Y-92549000D01*
X128566000Y-92561000D01*
X128556000Y-92574000D01*
X128546000Y-92585000D01*
X128536000Y-92597000D01*
X128524000Y-92607000D01*
X128513000Y-92617000D01*
X128500000Y-92627000D01*
X128488000Y-92635000D01*
X128474000Y-92643000D01*
X128461000Y-92651000D01*
X128447000Y-92657000D01*
X128433000Y-92663000D01*
X128418000Y-92669000D01*
X128403000Y-92673000D01*
X128388000Y-92677000D01*
X128373000Y-92679000D01*
X128358000Y-92681000D01*
X128342000Y-92683000D01*
X128327000Y-92683000D01*
X128322000Y-92683000D01*
X128306000Y-92683000D01*
X128291000Y-92681000D01*
X128275000Y-92679000D01*
X128260000Y-92676000D01*
X128244000Y-92673000D01*
X128229000Y-92668000D01*
X128214000Y-92663000D01*
X128200000Y-92657000D01*
X128186000Y-92650000D01*
X128172000Y-92643000D01*
X128159000Y-92635000D01*
X128146000Y-92626000D01*
X128133000Y-92616000D01*
X128121000Y-92606000D01*
X128110000Y-92595000D01*
X128099000Y-92584000D01*
X128089000Y-92572000D01*
X128079000Y-92559000D01*
X128070000Y-92546000D01*
X128062000Y-92533000D01*
X128055000Y-92519000D01*
X128048000Y-92505000D01*
X128042000Y-92491000D01*
X128037000Y-92476000D01*
X128032000Y-92461000D01*
X128029000Y-92445000D01*
X128026000Y-92430000D01*
X128024000Y-92414000D01*
X128022000Y-92399000D01*
X128022000Y-92383000D01*
X128022000Y-92378000D01*
X128022000Y-92363000D01*
X128024000Y-92347000D01*
X128026000Y-92332000D01*
X128028000Y-92317000D01*
X128032000Y-92302000D01*
X128036000Y-92287000D01*
X128042000Y-92272000D01*
X128048000Y-92258000D01*
X128054000Y-92244000D01*
X128062000Y-92231000D01*
X128070000Y-92217000D01*
X128078000Y-92205000D01*
X128088000Y-92192000D01*
X128098000Y-92181000D01*
X128108000Y-92169000D01*
X128120000Y-92159000D01*
X128131000Y-92149000D01*
X128144000Y-92139000D01*
X128156000Y-92131000D01*
X128170000Y-92123000D01*
X128183000Y-92115000D01*
X128197000Y-92109000D01*
X128211000Y-92103000D01*
X128226000Y-92097000D01*
X128241000Y-92093000D01*
X128256000Y-92089000D01*
X128271000Y-92087000D01*
X128286000Y-92085000D01*
X128302000Y-92083000D01*
X128317000Y-92083000D01*
X128332000Y-92083000D01*
X128347000Y-92083000D01*
X128362000Y-92085000D01*
G36*
X128362000Y-92085000D02*
G01*
X128377000Y-92087000D01*
X128392000Y-92089000D01*
X128407000Y-92093000D01*
X128422000Y-92097000D01*
X128436000Y-92102000D01*
X128450000Y-92108000D01*
X128464000Y-92115000D01*
X128477000Y-92122000D01*
X128490000Y-92130000D01*
X128502000Y-92138000D01*
X128515000Y-92148000D01*
X128526000Y-92157000D01*
X128537000Y-92168000D01*
X128548000Y-92179000D01*
X128557000Y-92190000D01*
X128567000Y-92203000D01*
X128575000Y-92215000D01*
X128583000Y-92228000D01*
X128590000Y-92241000D01*
X128597000Y-92255000D01*
X128603000Y-92269000D01*
X128608000Y-92283000D01*
X128612000Y-92298000D01*
X128616000Y-92313000D01*
X128618000Y-92328000D01*
X128620000Y-92343000D01*
X128622000Y-92358000D01*
X128622000Y-92373000D01*
X128622000Y-92388000D01*
X128622000Y-92403000D01*
X128620000Y-92419000D01*
X128618000Y-92434000D01*
X128616000Y-92449000D01*
X128612000Y-92464000D01*
X128608000Y-92479000D01*
X128602000Y-92494000D01*
X128596000Y-92508000D01*
X128590000Y-92522000D01*
X128582000Y-92535000D01*
X128574000Y-92549000D01*
X128566000Y-92561000D01*
X128556000Y-92574000D01*
X128546000Y-92585000D01*
X128536000Y-92597000D01*
X128524000Y-92607000D01*
X128513000Y-92617000D01*
X128500000Y-92627000D01*
X128488000Y-92635000D01*
X128474000Y-92643000D01*
X128461000Y-92651000D01*
X128447000Y-92657000D01*
X128433000Y-92663000D01*
X128418000Y-92669000D01*
X128403000Y-92673000D01*
X128388000Y-92677000D01*
X128373000Y-92679000D01*
X128358000Y-92681000D01*
X128342000Y-92683000D01*
X128327000Y-92683000D01*
X128322000Y-92683000D01*
X128306000Y-92683000D01*
X128291000Y-92681000D01*
X128275000Y-92679000D01*
X128260000Y-92676000D01*
X128244000Y-92673000D01*
X128229000Y-92668000D01*
X128214000Y-92663000D01*
X128200000Y-92657000D01*
X128186000Y-92650000D01*
X128172000Y-92643000D01*
X128159000Y-92635000D01*
X128146000Y-92626000D01*
X128133000Y-92616000D01*
X128121000Y-92606000D01*
X128110000Y-92595000D01*
X128099000Y-92584000D01*
X128089000Y-92572000D01*
X128079000Y-92559000D01*
X128070000Y-92546000D01*
X128062000Y-92533000D01*
X128055000Y-92519000D01*
X128048000Y-92505000D01*
X128042000Y-92491000D01*
X128037000Y-92476000D01*
X128032000Y-92461000D01*
X128029000Y-92445000D01*
X128026000Y-92430000D01*
X128024000Y-92414000D01*
X128022000Y-92399000D01*
X128022000Y-92383000D01*
X128022000Y-92378000D01*
X128022000Y-92363000D01*
X128024000Y-92347000D01*
X128026000Y-92332000D01*
X128028000Y-92317000D01*
X128032000Y-92302000D01*
X128036000Y-92287000D01*
X128042000Y-92272000D01*
X128048000Y-92258000D01*
X128054000Y-92244000D01*
X128062000Y-92231000D01*
X128070000Y-92217000D01*
X128078000Y-92205000D01*
X128088000Y-92192000D01*
X128098000Y-92181000D01*
X128108000Y-92169000D01*
X128120000Y-92159000D01*
X128131000Y-92149000D01*
X128144000Y-92139000D01*
X128156000Y-92131000D01*
X128170000Y-92123000D01*
X128183000Y-92115000D01*
X128197000Y-92109000D01*
X128211000Y-92103000D01*
X128226000Y-92097000D01*
X128241000Y-92093000D01*
X128256000Y-92089000D01*
X128271000Y-92087000D01*
X128286000Y-92085000D01*
X128302000Y-92083000D01*
X128317000Y-92083000D01*
X128332000Y-92083000D01*
X128347000Y-92083000D01*
X128362000Y-92085000D01*
G37*
%TD*%
D11*
%TO.C,D2*%
X135204000Y-85929000D03*
X136779000Y-85929000D03*
%TD*%
D12*
%TO.C,C1*%
X132461000Y-95575000D03*
X132461000Y-94615000D03*
%TD*%
D13*
%TO.C,R2*%
X125857000Y-89916000D03*
X124837000Y-89916000D03*
%TD*%
D14*
%TO.C,D1*%
X136779000Y-88519000D03*
X135204000Y-88519000D03*
%TD*%
D13*
%TO.C,R3*%
X132080000Y-89916000D03*
X131060000Y-89916000D03*
%TD*%
D15*
%TO.C,C2*%
X132461000Y-92075000D03*
X132461000Y-93035000D03*
%TD*%
D16*
%TO.C,R1*%
X127885000Y-89916000D03*
X128905000Y-89916000D03*
%TD*%
D17*
%TO.C,U1*%
X126517400Y-97383600D03*
X126517400Y-98704400D03*
X128397000Y-98044000D03*
%TD*%
D13*
%TO.C,R4*%
X136501500Y-90755000D03*
X135481500Y-90755000D03*
%TD*%
D18*
%TO.C,MK1*%
X129837000Y-94863000D03*
%TD*%
M02*
