%TF.GenerationSoftware,KiCad,Pcbnew,7.0.1-0*%
%TF.CreationDate,2023-04-11T15:49:42+08:00*%
%TF.ProjectId,firstproject,66697273-7470-4726-9f6a-6563742e6b69,rev?*%
%TF.SameCoordinates,Original*%
%TF.FileFunction,Copper,L2,Bot*%
%TF.FilePolarity,Positive*%
%FSLAX46Y46*%
G04 Gerber Fmt 4.6, Leading zero omitted, Abs format (unit mm)*
G04 Created by KiCad (PCBNEW 7.0.1-0) date 2023-04-11 15:49:42*
%MOMM*%
%LPD*%
G01*
G04 APERTURE LIST*
%TA.AperFunction,ComponentPad*%
%ADD10R,1.700000X1.700000*%
%TD*%
%TA.AperFunction,ComponentPad*%
%ADD11O,1.700000X1.700000*%
%TD*%
%TA.AperFunction,ViaPad*%
%ADD12C,0.800000*%
%TD*%
%TA.AperFunction,Conductor*%
%ADD13C,0.250000*%
%TD*%
G04 APERTURE END LIST*
D10*
%TO.P,J1,1,Pin_1*%
%TO.N,VCC*%
X136017000Y-93853000D03*
D11*
%TO.P,J1,2,Pin_2*%
%TO.N,MODE*%
X136017000Y-96393000D03*
%TO.P,J1,3,Pin_3*%
%TO.N,GND*%
X136017000Y-98933000D03*
%TD*%
D10*
%TO.P,J2,1,Pin_1*%
%TO.N,TRIG*%
X121920000Y-88900000D03*
D11*
%TO.P,J2,2,Pin_2*%
%TO.N,AUDIO*%
X121920000Y-91440000D03*
%TO.P,J2,3,Pin_3*%
%TO.N,GA2*%
X121920000Y-93980000D03*
%TO.P,J2,4,Pin_4*%
%TO.N,GA1*%
X121920000Y-96520000D03*
%TO.P,J2,5,Pin_5*%
%TO.N,GND*%
X121920000Y-99060000D03*
%TD*%
D12*
%TO.N,MODE*%
X128905000Y-89916000D03*
X130302000Y-93483000D03*
%TO.N,GND*%
X136753600Y-88544400D03*
X132461000Y-93035000D03*
%TO.N,Net-(D1-A)*%
X135229600Y-88544400D03*
X132080000Y-89916000D03*
%TO.N,Net-(D2-K)*%
X135204000Y-85929000D03*
X128473200Y-97979900D03*
%TO.N,TRIG*%
X129321503Y-92383000D03*
X126517400Y-97383600D03*
%TO.N,AUDIO*%
X128322000Y-92383000D03*
%TO.N,GA2*%
X125604000Y-94318000D03*
X128272000Y-93483000D03*
%TD*%
D13*
%TO.N,MODE*%
X130302000Y-91313000D02*
X128905000Y-89916000D01*
X130302000Y-93483000D02*
X130302000Y-91313000D01*
%TO.N,GND*%
X136753600Y-88544400D02*
X132461000Y-92837000D01*
X132461000Y-92837000D02*
X132461000Y-93035000D01*
%TO.N,Net-(D1-A)*%
X135229600Y-88544400D02*
X133451600Y-88544400D01*
X133451600Y-88544400D02*
X132080000Y-89916000D01*
%TO.N,Net-(D2-K)*%
X131355000Y-95098100D02*
X131355000Y-89615695D01*
X131355000Y-89615695D02*
X135041695Y-85929000D01*
X135041695Y-85929000D02*
X135204000Y-85929000D01*
X128473200Y-97979900D02*
X131355000Y-95098100D01*
%TO.N,TRIG*%
X120745000Y-90075000D02*
X120745000Y-94466701D01*
X124478800Y-95345000D02*
X126517400Y-97383600D01*
X121920000Y-88900000D02*
X125864305Y-88900000D01*
X121920000Y-88900000D02*
X120745000Y-90075000D01*
X121623299Y-95345000D02*
X124478800Y-95345000D01*
X129321503Y-92357198D02*
X129321503Y-92383000D01*
X125864305Y-88900000D02*
X129321503Y-92357198D01*
X120745000Y-94466701D02*
X121623299Y-95345000D01*
%TO.N,AUDIO*%
X122863000Y-92383000D02*
X128322000Y-92383000D01*
X121920000Y-91440000D02*
X122863000Y-92383000D01*
%TO.N,GA2*%
X127437000Y-94318000D02*
X128272000Y-93483000D01*
X125604000Y-94318000D02*
X127437000Y-94318000D01*
%TD*%
M02*
